<svg width="49" height="49" viewBox="0 0 49 49" fill="none" xmlns="http://www.w3.org/2000/svg">
<path d="M43.0508 26.6397H35.6208C35.6208 20.6997 30.7808 15.8597 24.8408 15.8597V8.42969C34.8808 8.42969 43.0508 16.5997 43.0508 26.6397Z" fill="#82D2DA"/>
<path d="M24.7404 8.43031C34.8304 8.43031 43.0004 16.6103 43.0004 26.6903C43.0004 36.7703 34.8204 44.9503 24.7404 44.9503C14.6604 44.9503 6.47035 36.7803 6.47035 26.6903C6.47035 16.6003 14.6504 8.43031 24.7404 8.43031ZM24.7404 6.82031C13.7804 6.82031 4.86035 15.7303 4.86035 26.6903C4.86035 37.6503 13.7804 46.5703 24.7404 46.5703C35.7004 46.5703 44.6203 37.6503 44.6203 26.6903C44.6203 15.7303 35.7004 6.82031 24.7404 6.82031Z" fill="black"/>
<path d="M26.8299 5.53906H22.6299V6.83906H26.8299V5.53906Z" fill="#82D2DA"/>
<path d="M26.8299 5.53906H22.6299V6.83906H26.8299V5.53906Z" fill="black" fill-opacity="0.2"/>
<path d="M28.2305 2.37891H21.2305V5.48891H28.2305V2.37891Z" fill="#82D2DA"/>
<path d="M24.8805 8.39844H24.5605V11.5084H24.8805V8.39844Z" fill="black"/>
<path d="M24.8307 41.8672H24.5107V44.9772H24.8307V41.8672Z" fill="black"/>
<path d="M9.38051 26.5H6.27051V26.82H9.38051V26.5Z" fill="black"/>
<path d="M11.4599 34.0445L8.8291 35.7031L8.99976 35.9738L11.6306 34.3152L11.4599 34.0445Z" fill="black"/>
<path d="M16.5374 39.5549L14.792 42.1289L15.0568 42.3085L16.8022 39.7344L16.5374 39.5549Z" fill="black"/>
<path d="M32.6424 39.6603L32.3652 39.8203L33.9202 42.5137L34.1974 42.3537L32.6424 39.6603Z" fill="black"/>
<path d="M40.6047 17.6017L37.9111 19.1562L38.0711 19.4334L40.7647 17.8789L40.6047 17.6017Z" fill="black"/>
<path d="M34.2909 11.0994L32.7363 13.793L33.0135 13.9529L34.568 11.2593L34.2909 11.0994Z" fill="black"/>
<path d="M15.3797 10.9455L15.1025 11.1055L16.6575 13.7988L16.9347 13.6388L15.3797 10.9455Z" fill="black"/>
<path d="M37.8083 34.4122L37.6387 34.6836L40.2758 36.3321L40.4454 36.0608L37.8083 34.4122Z" fill="black"/>
<path d="M9.07113 17.258L8.91113 17.5352L11.6045 19.0902L11.7645 18.813L9.07113 17.258Z" fill="black"/>
<path d="M43.0104 26.5078H39.9004V26.8278H43.0104V26.5078Z" fill="black"/>
</svg>
