<svg width="54" height="55" viewBox="0 0 54 55" fill="none" xmlns="http://www.w3.org/2000/svg">
<path d="M42.75 25.25H11.25C8.76472 25.25 6.75 27.2647 6.75 29.75V45.5C6.75 47.9853 8.76472 50 11.25 50H42.75C45.2353 50 47.25 47.9853 47.25 45.5V29.75C47.25 27.2647 45.2353 25.25 42.75 25.25Z" stroke="white" stroke-opacity="0.8" stroke-width="4" stroke-linecap="round" stroke-linejoin="round"/>
<path d="M15.75 25.25V16.25C15.75 13.2663 16.9353 10.4048 19.045 8.29505C21.1548 6.18526 24.0163 5 27 5C29.9837 5 32.8452 6.18526 34.955 8.29505C37.0647 10.4048 38.25 13.2663 38.25 16.25V25.25" stroke="white" stroke-opacity="0.8" stroke-width="4" stroke-linecap="round" stroke-linejoin="round"/>
</svg>
